<?xml version="1.0" standalone="no"?>
<!DOCTYPE svg PUBLIC "-//W3C//DTD SVG 20010904//EN"
 "http://www.w3.org/TR/2001/REC-SVG-20010904/DTD/svg10.dtd">
<svg version="1.0" xmlns="http://www.w3.org/2000/svg"
 width="72.000000pt" height="72.000000pt" viewBox="0 0 72.000000 72.000000"
 preserveAspectRatio="xMidYMid meet">
<metadata>
Created by potrace 1.11, written by Peter Selinger 2001-2013
</metadata>
<g transform="translate(0.000000,72.000000) scale(0.100000,-0.100000)"
fill="#000000" stroke="none">
<path d="M323 621 c-5 -12 -8 -38 -7 -57 3 -35 -10 -54 -20 -29 -3 8 -11 15
-18 15 -9 0 -13 -16 -12 -51 1 -28 -1 -60 -3 -70 -5 -18 -6 -18 -24 2 -11 12
-21 20 -23 18 -3 -3 -6 -30 -7 -62 -1 -32 -6 -60 -11 -63 -4 -3 -8 0 -8 6 0 6
-4 9 -8 6 -13 -8 -14 -128 -1 -161 7 -16 26 -43 43 -58 17 -16 26 -27 20 -25
-7 2 -14 -1 -15 -7 -5 -12 209 -16 231 -4 12 7 11 8 -5 9 -15 0 -11 6 17 22
35 20 64 64 73 108 5 25 -5 61 -15 55 -9 -6 -7 21 2 31 8 8 1 65 -13 101 l-11
28 -12 -24 c-13 -23 -13 -22 -25 25 -13 54 -36 94 -52 94 -6 0 -8 -4 -5 -8 2
-4 1 -14 -5 -22 -7 -12 -9 -12 -9 3 0 11 -9 31 -19 46 -10 14 -26 42 -34 61
-14 34 -15 35 -24 11z m71 -306 c4 -20 4 -46 1 -58 -5 -19 -3 -18 21 8 l27 30
-6 -32 c-4 -20 -2 -33 5 -35 22 -8 -2 -59 -42 -86 -22 -15 -38 -32 -36 -37 8
-24 -50 -10 -77 17 -38 39 -62 110 -34 100 4 -1 6 1 6 5 -3 21 2 33 12 28 6
-4 8 -13 5 -21 -3 -8 -2 -14 3 -14 5 0 12 -10 15 -22 7 -22 7 -22 15 -3 5 11
5 21 1 23 -3 1 -4 16 -2 33 4 29 5 29 19 9 8 -11 18 -20 22 -20 12 0 23 39 23
78 1 43 14 41 22 -3z"/>
</g>
</svg>
